# xmcd
#
# Track frame offsets: 
#        150
#        18258
#        36906
#        56620
#        74961
#        98797
#        119374
#        134832
#        153998
#        175697
#        196508
#        216607
#        236238
#        259073
#
# Disc length: 4105 seconds
#
# Revision: 2
# Processed by: cddbd v1.5.2PL0 Copyright (c) Steve Scherf et al.
# Submitted via: ExactAudioCopy v1.0b4
#
DISCID=d310070e
DTITLE=JW Jones - Kissing in 29 Days
DYEAR=2006
DGENRE=Blues, Jump Blues
TTITLE0=Kissing In 29 Days
TTITLE1=Hey Girl!
TTITLE2=All My Money
TTITLE3=I Don't Want To Hear
TTITLE4=Games
TTITLE5=Parasomnia
TTITLE6=Fly To You
TTITLE7=Got Me Chasin'
TTITLE8=Way Too Late
TTITLE9=Hallelujah I Love Her So
TTITLE10=Pretty Little Sweet Thing
TTITLE11=Standing in Line
TTITLE12=No Love
TTITLE13=Here She Comes
EXTD=
EXTT0=
EXTT1=
EXTT2=
EXTT3=
EXTT4=
EXTT5=
EXTT6=
EXTT7=
EXTT8=
EXTT9=
EXTT10=
EXTT11=
EXTT12=
EXTT13=
PLAYORDER=
